<?xml version="1.0" encoding="UTF-8" standalone="no"?>
<!-- Created with Inkscape (http://www.inkscape.org/) -->

<svg
   xmlns:dc="http://purl.org/dc/elements/1.1/"
   xmlns:cc="http://creativecommons.org/ns#"
   xmlns:rdf="http://www.w3.org/1999/02/22-rdf-syntax-ns#"
   xmlns:svg="http://www.w3.org/2000/svg"
   xmlns="http://www.w3.org/2000/svg"
   xmlns:sodipodi="http://sodipodi.sourceforge.net/DTD/sodipodi-0.dtd"
   xmlns:inkscape="http://www.inkscape.org/namespaces/inkscape"
   width="1920"
   height="250"
   viewBox="0 0 1920 250"
   id="svg2"
   version="1.1"
   inkscape:version="0.91 r13725"
   sodipodi:docname="howto.svg">
  <defs
     id="defs4">
    <marker
       viewBox="0 0 10 10"
       refY="5"
       refX="0"
       orient="auto"
       markerWidth="4"
       markerUnits="strokeWidth"
       markerHeight="3"
       id="ArrowEnd">
      <path
         id="path2444"
         d="M 0,0 10,5 0,10 0,0 Z"
         inkscape:connector-curvature="0" />
    </marker>
    <marker
       viewBox="0 0 10 10"
       refY="5"
       refX="10"
       orient="auto"
       markerWidth="4"
       markerUnits="strokeWidth"
       markerHeight="3"
       id="ArrowStart">
      <path
         id="path2447"
         d="M 10,0 0,5 10,10 10,0 Z"
         inkscape:connector-curvature="0" />
    </marker>
  </defs>
  <sodipodi:namedview
     id="base"
     pagecolor="#ffffff"
     bordercolor="#666666"
     borderopacity="1.0"
     inkscape:pageopacity="0.0"
     inkscape:pageshadow="2"
     inkscape:zoom="0.9899495"
     inkscape:cx="842.33842"
     inkscape:cy="95.83367"
     inkscape:document-units="px"
     inkscape:current-layer="layer1"
     showgrid="false"
     inkscape:window-width="1882"
     inkscape:window-height="1062"
     inkscape:window-x="38"
     inkscape:window-y="18"
     inkscape:window-maximized="1"
     units="px" />
  <metadata
     id="metadata7">
    <rdf:RDF>
      <cc:Work
         rdf:about="">
        <dc:format>image/svg+xml</dc:format>
        <dc:type
           rdf:resource="http://purl.org/dc/dcmitype/StillImage" />
        <dc:title />
      </cc:Work>
    </rdf:RDF>
  </metadata>
  <g
     inkscape:label="Vrstva 1"
     inkscape:groupmode="layer"
     id="layer1"
     transform="translate(0,-802.36216)">
    <text
       xml:space="preserve"
       style="font-style:normal;font-weight:normal;font-size:40px;line-height:125%;font-family:sans-serif;letter-spacing:0px;word-spacing:0px;fill:#000000;fill-opacity:1;stroke:none;stroke-width:1px;stroke-linecap:butt;stroke-linejoin:miter;stroke-opacity:1"
       x="-1400.0714"
       y="-50.724373"
       id="text4558"
       sodipodi:linespacing="125%"><tspan
         sodipodi:role="line"
         id="tspan4560"
         x="-1400.0714"
         y="-50.724373" /></text>
    <g
       style="stroke:#4b3832;stroke-opacity:1;fill:#4b3832;fill-opacity:1"
       id="g3404"
       transform="matrix(0.31510248,0,0,0.31508762,179.78898,804.4744)">
      <g
         style="stroke:#4b3832;stroke-opacity:1;fill:#4b3832;fill-opacity:1"
         id="meanicons_x5F_41">
        <g
           style="stroke:#4b3832;stroke-opacity:1;fill:#4b3832;fill-opacity:1"
           id="g3391">
          <path
             style="stroke:#4b3832;stroke-opacity:1;fill:#4b3832;fill-opacity:1"
             id="path3393"
             d="m 261.798,475.664 0.024,0 c -0.024,-0.045 -0.047,-0.097 -0.047,-0.141 -0.438,-1.758 -1.085,-3.479 -1.979,-5.156 -14.269,-37.994 -25.787,-92.076 -32.828,-155.521 -4.53,-44.008 -5.301,-94.53 -5.979,-148.26 -0.771,-59.217 1.209,-114.508 5.33,-161.606 -3.258,-1.834 -6.535,-2.748 -9.908,-2.748 -34.423,0.213 -60.98,100.215 -59.391,223.412 0.19,15.44 0.848,30.533 1.856,45.1 17.11,4.871 28.799,14.643 28.972,25.977 l 0.117,11.812 c 0.074,0.051 0.146,0.051 0.17,0.051 -5.207,66.325 -15.543,122.972 -29.283,162.451 -0.869,1.642 -1.47,3.399 -1.857,5.164 0,0.037 -0.021,0.097 -0.021,0.097 l 0.021,0 c -0.268,1.348 -0.479,2.693 -0.457,4.051 0.189,17.107 24.105,30.851 53.314,30.653 29.213,-0.19 52.713,-14.2 52.5,-31.28 0.002,-1.397 -0.244,-2.761 -0.554,-4.056 z"
             inkscape:connector-curvature="0" />
          <path
             style="stroke:#4b3832;stroke-opacity:1;fill:#4b3832;fill-opacity:1"
             id="path3395"
             d="m 115.999,118.697 -6.365,-85.953 0,-25.165 c 0,-4.724 -3.95,-8.58 -8.868,-8.58 -4.872,0 -8.847,3.856 -8.847,8.58 l 0,108.924 c -1.471,2.392 -3.928,4.074 -6.941,4.121 -4.752,0.146 -8.652,-3.612 -8.748,-8.36 l -1.373,-58.066 0,-46.618 c 0,-4.723 -3.979,-8.58 -8.85,-8.58 -4.865,0 -8.822,3.857 -8.822,8.58 l 0,109.861 c -1.516,2.289 -3.953,3.959 -6.893,4.002 -4.723,0.096 -8.678,-3.613 -8.773,-8.39 l -2.674,-62.765 0,-42.71 c 0,-4.723 -3.979,-8.58 -8.846,-8.58 -4.891,0 -8.87,3.857 -8.87,8.58 l 0,13.347 -11.955,97.793 c -0.438,18.304 14.391,33.724 37.501,38.205 -4.863,126.064 -21.472,236.138 -43.624,303.699 -0.94,2.022 -1.592,4.052 -2.072,6.167 0,0.032 -0.049,0.083 -0.049,0.146 -0.34,1.547 -0.553,3.187 -0.578,4.82 -0.482,20.293 22.803,36.777 52.012,36.757 29.213,0 53.319,-16.506 53.8,-36.853 0,-1.61 -0.146,-3.229 -0.41,-4.789 0,-0.051 -0.022,-0.084 -0.022,-0.178 -0.361,-2.072 -0.963,-4.146 -1.787,-6.123 C 85.025,393.03 73.67,282.985 74.783,156.877 c 23.333,-4.481 40.804,-19.856 41.216,-38.18 z"
             inkscape:connector-curvature="0" />
        </g>
      </g>
      <g
         style="stroke:#4b3832;stroke-opacity:1;fill:#4b3832;fill-opacity:1"
         id="Layer_1_1_" />
    </g>
    <g
       style="stroke:#4b3832;stroke-opacity:1"
       id="g3469"
       transform="matrix(3.5851947,0,0,3.5850257,670.69762,841.80145)">
      <path
         id="path3460"
         stroke-miterlimit="10"
         d="m 21,11 0,8 c 0,1.1 -0.9,2 -2,2 L 5,21 C 3.9,21 3,20.1 3,19 L 3,5 C 3,3.9 3.9,3 5,3 l 9,0"
         inkscape:connector-curvature="0"
         style="fill:none;stroke:#4b3832;stroke-width:2;stroke-miterlimit:10;stroke-opacity:1" />
      <polyline
         stroke-miterlimit="10"
         points="  21.2,4.6 11.2,15.2 6.8,10.8 "
         id="Done__x2014__Displayed_on_the_left_side_of_a_contextual_action_bar__x28_CAB_x29__to_allow_the_user_to_dismiss_it._3_"
         style="clip-rule:evenodd;fill:none;fill-rule:evenodd;stroke:#4b3832;stroke-width:2;stroke-miterlimit:10;stroke-opacity:1" />
    </g>
    <path
       id="path3571"
       d="m 1274.0708,836.31808 -135.6258,0 -1.1762,0 -2.8546,0 -1.9663,0 0,97.00735 147.6292,0 0,-97.00735 -5.1065,0 -0.8998,0 z m -5.905,6.0631 -57.0336,58.55639 c -2.6006,2.67012 -7.1394,2.67012 -9.74,0 l -57.0421,-58.55639 123.8157,0 z m -129.8131,2.41525 38.3432,39.36137 -38.3432,39.36747 0,-78.72884 z m 4.7114,82.46498 37.8099,-38.81389 16.343,16.77673 c 2.4135,2.48101 5.6284,3.8488 9.0452,3.8488 3.4168,0 6.6317,-1.36779 9.0452,-3.8488 l 16.343,-16.77948 37.8069,38.81664 -126.3932,0 z m 131.1079,-3.7331 -38.3435,-39.3702 38.3432,-39.37022 0,78.74042 z"
       inkscape:connector-curvature="0"
       style="fill:#4b3832;stroke:#4b3832;stroke-width:0.30050796;stroke-opacity:1;fill-opacity:1" />
    <path
       id="path3654"
       d="m 438.91054,892.97515 28.53824,0 0,12.23008 c 0,1.97312 1.52881,4.0767 4.07681,4.0767 1.87945,0 2.83347,-1.17002 4.07691,-2.20142 l 21.91324,-18.18206 c 1.56145,-1.276 2.54809,-2.26256 2.54809,-4.07669 0,-1.81413 -0.98664,-2.80477 -2.54809,-4.07669 L 475.6025,862.56301 c -1.24344,-1.0314 -2.19746,-2.20142 -4.07691,-2.20142 -2.548,0 -4.07681,2.10357 -4.07681,4.0767 l 0,12.23008 -28.53824,0 c -2.24227,0 -4.07691,1.83451 -4.07691,4.0767 l 0,8.15338 c 0,2.24219 1.83464,4.0767 4.07691,4.0767 z"
       inkscape:connector-curvature="0"
       style="fill:none;stroke:#4b3832;stroke-width:4.85516882;stroke-miterlimit:4;stroke-dasharray:none;stroke-opacity:1" />
    <path
       style="fill:none;stroke:#4b3832;stroke-width:4.85516882;stroke-miterlimit:4;stroke-dasharray:none;stroke-opacity:1"
       inkscape:connector-curvature="0"
       d="m 931.45308,892.97515 28.53818,0 0,12.23008 c 0,1.97312 1.52883,4.0767 4.07689,4.0767 1.87944,0 2.83344,-1.17002 4.07688,-2.20142 l 21.91325,-18.18206 c 1.56146,-1.276 2.54806,-2.26256 2.54806,-4.07669 0,-1.81413 -0.9866,-2.80477 -2.54806,-4.07669 l -21.91325,-18.18206 c -1.24344,-1.0314 -2.19744,-2.20142 -4.07688,-2.20142 -2.54806,0 -4.07689,2.10357 -4.07689,4.0767 l 0,12.23008 -28.53818,0 c -2.24231,0 -4.07692,1.83451 -4.07692,4.0767 l 0,8.15338 c 0,2.24219 1.83461,4.0767 4.07692,4.0767 z"
       id="path4497" />
    <path
       style="stroke:#4b3832;stroke-width:0.89627755;stroke-opacity:1;fill:#4b3832;fill-opacity:1"
       id="path4547"
       d="m 1745.8405,938.60387 -67.2089,0 0,-13.45057 67.2089,0 0,13.45057 z m 0,-94.11365 -67.2089,0 0,13.45057 67.2089,0 0,-13.45057 z m 0,26.87425 -67.2089,0 0,13.45729 67.2089,0 0,-13.45729 z m -80.6669,-26.87425 -13.4041,0 0,13.45057 13.4041,0 0,-13.45057 z m 80.6669,53.78211 -67.2089,0 0,13.42368 67.2089,0 0,-13.42368 z m -80.6669,26.88097 -13.4041,0 0,13.45057 13.4041,0 0,-13.45057 z m 0,-53.78883 -13.4041,0 0,13.45729 13.4041,0 0,-13.45729 z m 0,26.90786 -13.4041,0 0,13.42368 13.4041,0 0,-13.42368 z m 107.5962,-87.40517 c 0,-3.70378 -3.0452,-6.70848 -6.7626,-6.70848 l -134.4044,0 c -3.7443,0 -6.7626,3.0047 -6.7626,6.70848 l 0,147.90248 c 0,3.69706 3.0183,6.7152 6.7626,6.7152 l 134.4044,0 c 3.7174,0 6.7626,-3.01814 6.7626,-6.7152 l 0,-147.90248 z m -13.4714,141.16039 -121.0003,0 0,-120.99462 121.0003,0 0,120.99462 z"
       inkscape:connector-curvature="0" />
    <path
       id="path4556"
       d="m 1423.9956,892.97515 28.5382,0 0,12.23008 c 0,1.97312 1.5288,4.0767 4.0769,4.0767 1.8794,0 2.8334,-1.17002 4.0768,-2.20142 l 21.9133,-18.18206 c 1.5614,-1.276 2.548,-2.26256 2.548,-4.07669 0,-1.81413 -0.9866,-2.80477 -2.548,-4.07669 l -21.9133,-18.18206 c -1.2434,-1.0314 -2.1974,-2.20142 -4.0768,-2.20142 -2.5481,0 -4.0769,2.10357 -4.0769,4.0767 l 0,12.23008 -28.5382,0 c -2.2423,0 -4.0769,1.83451 -4.0769,4.0767 l 0,8.15338 c 0,2.24219 1.8346,4.0767 4.0769,4.0767 z"
       inkscape:connector-curvature="0"
       style="fill:none;stroke:#4b3832;stroke-width:4.85516882;stroke-miterlimit:4;stroke-dasharray:none;stroke-opacity:1" />
    <text
       xml:space="preserve"
       style="font-style:normal;font-variant:normal;font-weight:bold;font-stretch:normal;font-size:35.85110092px;line-height:125%;font-family:sans-serif;-inkscape-font-specification:'sans-serif Bold';letter-spacing:0px;word-spacing:0px;fill:#4b3832;fill-opacity:1;stroke:#4b3832;stroke-width:0.89627755px;stroke-linecap:butt;stroke-linejoin:miter;stroke-opacity:1;"
       x="-3.2910647"
       y="1043.4132"
       id="text4562"
       sodipodi:linespacing="125%"
       transform="scale(1.0000236,0.99997643)"><tspan
         sodipodi:role="line"
         id="tspan4564"
         x="-3.2910647"
         y="1043.4132"
         style="stroke-width:0.89627755px;fill:#4b3832;fill-opacity:1;">NAJDĚTE RESTAURACE</tspan></text>
    <text
       xml:space="preserve"
       style="font-style:normal;font-variant:normal;font-weight:bold;font-stretch:normal;font-size:35.85110092px;line-height:125%;font-family:sans-serif;-inkscape-font-specification:'sans-serif Bold';letter-spacing:0px;word-spacing:0px;fill:#4b3832;fill-opacity:1;stroke:#4b3832;stroke-width:0.89627755px;stroke-linecap:butt;stroke-linejoin:miter;stroke-opacity:1;"
       x="529.72992"
       y="1041.6462"
       id="text4566"
       sodipodi:linespacing="125%"
       transform="scale(1.0000236,0.99997643)"><tspan
         sodipodi:role="line"
         id="tspan4568"
         x="529.72992"
         y="1041.6462"
         style="stroke-width:0.89627755px;fill:#4b3832;fill-opacity:1;">VYBERTE OBLÍBENÉ</tspan></text>
    <text
       xml:space="preserve"
       style="font-style:normal;font-variant:normal;font-weight:bold;font-stretch:normal;font-size:35.85110092px;line-height:125%;font-family:sans-serif;-inkscape-font-specification:'sans-serif Bold';letter-spacing:0px;word-spacing:0px;fill:#4b3832;fill-opacity:1;stroke:#4b3832;stroke-width:0.89627755px;stroke-linecap:butt;stroke-linejoin:miter;stroke-opacity:1;"
       x="1045.0004"
       y="1040.9285"
       id="text4570"
       sodipodi:linespacing="125%"
       transform="scale(1.0000236,0.99997643)"><tspan
         sodipodi:role="line"
         id="tspan4572"
         x="1045.0004"
         y="1040.9285"
         style="stroke-width:0.89627755px;fill:#4b3832;fill-opacity:1;">ZADEJTE E-MAIL</tspan></text>
    <text
       xml:space="preserve"
       style="font-style:normal;font-variant:normal;font-weight:bold;font-stretch:normal;font-size:35.85110092px;line-height:125%;font-family:sans-serif;-inkscape-font-specification:'sans-serif Bold';letter-spacing:0px;word-spacing:0px;fill:#4b3832;fill-opacity:1;stroke:#4b3832;stroke-width:0.89627755px;stroke-linecap:butt;stroke-linejoin:miter;stroke-opacity:1;"
       x="1474.2842"
       y="1041.6462"
       id="text4574"
       sodipodi:linespacing="125%"
       transform="scale(1.0000236,0.99997643)"><tspan
         sodipodi:role="line"
         id="tspan4576"
         x="1474.2842"
         y="1041.6462"
         style="stroke-width:0.89627755px;fill:#4b3832;fill-opacity:1;">DOSTÁVEJTE JÍDELÁKY</tspan></text>
  </g>
</svg>
