<?xml version="1.0" encoding="UTF-8" standalone="no"?>
<!-- Created with Inkscape (http://www.inkscape.org/) -->

<svg
   xmlns:dc="http://purl.org/dc/elements/1.1/"
   xmlns:cc="http://creativecommons.org/ns#"
   xmlns:rdf="http://www.w3.org/1999/02/22-rdf-syntax-ns#"
   xmlns:svg="http://www.w3.org/2000/svg"
   xmlns="http://www.w3.org/2000/svg"
   xmlns:sodipodi="http://sodipodi.sourceforge.net/DTD/sodipodi-0.dtd"
   xmlns:inkscape="http://www.inkscape.org/namespaces/inkscape"
   width="1920"
   height="250"
   viewBox="0 0 1920 250"
   id="svg2"
   version="1.1"
   inkscape:version="0.91 r13725"
   sodipodi:docname="howto.svg">
  <defs
     id="defs4">
    <marker
       viewBox="0 0 10 10"
       refY="5"
       refX="0"
       orient="auto"
       markerWidth="4"
       markerUnits="strokeWidth"
       markerHeight="3"
       id="ArrowEnd">
      <path
         id="path2444"
         d="M 0,0 10,5 0,10 0,0 Z"
         inkscape:connector-curvature="0" />
    </marker>
    <marker
       viewBox="0 0 10 10"
       refY="5"
       refX="10"
       orient="auto"
       markerWidth="4"
       markerUnits="strokeWidth"
       markerHeight="3"
       id="ArrowStart">
      <path
         id="path2447"
         d="M 10,0 0,5 10,10 10,0 Z"
         inkscape:connector-curvature="0" />
    </marker>
  </defs>
  <sodipodi:namedview
     id="base"
     pagecolor="#ffffff"
     bordercolor="#666666"
     borderopacity="1.0"
     inkscape:pageopacity="0.0"
     inkscape:pageshadow="2"
     inkscape:zoom="0.49497475"
     inkscape:cx="688.77937"
     inkscape:cy="358.64446"
     inkscape:document-units="px"
     inkscape:current-layer="layer1"
     showgrid="false"
     inkscape:window-width="1869"
     inkscape:window-height="1056"
     inkscape:window-x="51"
     inkscape:window-y="24"
     inkscape:window-maximized="1"
     units="px" />
  <metadata
     id="metadata7">
    <rdf:RDF>
      <cc:Work
         rdf:about="">
        <dc:format>image/svg+xml</dc:format>
        <dc:type
           rdf:resource="http://purl.org/dc/dcmitype/StillImage" />
        <dc:title />
      </cc:Work>
    </rdf:RDF>
  </metadata>
  <g
     inkscape:label="Vrstva 1"
     inkscape:groupmode="layer"
     id="layer1"
     transform="translate(0,-802.36216)">
    <text
       xml:space="preserve"
       style="font-style:normal;font-weight:normal;font-size:40px;line-height:125%;font-family:sans-serif;letter-spacing:0px;word-spacing:0px;fill:#000000;fill-opacity:1;stroke:none;stroke-width:1px;stroke-linecap:butt;stroke-linejoin:miter;stroke-opacity:1"
       x="-1400.0714"
       y="-50.724373"
       id="text4558"
       sodipodi:linespacing="125%"><tspan
         sodipodi:role="line"
         id="tspan4560"
         x="-1400.0714"
         y="-50.724373" /></text>
    <g
       id="g4578"
       transform="matrix(0.89629868,0,0,0.89625643,1403.698,1138.5127)"
       inkscape:export-xdpi="90"
       inkscape:export-ydpi="90">
      <g
         transform="matrix(0.35155968,0,0,0.35155968,-1365.5147,-372.70394)"
         id="g3404">
        <g
           id="meanicons_x5F_41">
          <g
             id="g3391">
            <path
               inkscape:connector-curvature="0"
               d="m 261.798,475.664 0.024,0 c -0.024,-0.045 -0.047,-0.097 -0.047,-0.141 -0.438,-1.758 -1.085,-3.479 -1.979,-5.156 -14.269,-37.994 -25.787,-92.076 -32.828,-155.521 -4.53,-44.008 -5.301,-94.53 -5.979,-148.26 -0.771,-59.217 1.209,-114.508 5.33,-161.606 -3.258,-1.834 -6.535,-2.748 -9.908,-2.748 -34.423,0.213 -60.98,100.215 -59.391,223.412 0.19,15.44 0.848,30.533 1.856,45.1 17.11,4.871 28.799,14.643 28.972,25.977 l 0.117,11.812 c 0.074,0.051 0.146,0.051 0.17,0.051 -5.207,66.325 -15.543,122.972 -29.283,162.451 -0.869,1.642 -1.47,3.399 -1.857,5.164 0,0.037 -0.021,0.097 -0.021,0.097 l 0.021,0 c -0.268,1.348 -0.479,2.693 -0.457,4.051 0.189,17.107 24.105,30.851 53.314,30.653 29.213,-0.19 52.713,-14.2 52.5,-31.28 0.002,-1.397 -0.244,-2.761 -0.554,-4.056 z"
               id="path3393" />
            <path
               inkscape:connector-curvature="0"
               d="m 115.999,118.697 -6.365,-85.953 0,-25.165 c 0,-4.724 -3.95,-8.58 -8.868,-8.58 -4.872,0 -8.847,3.856 -8.847,8.58 l 0,108.924 c -1.471,2.392 -3.928,4.074 -6.941,4.121 -4.752,0.146 -8.652,-3.612 -8.748,-8.36 l -1.373,-58.066 0,-46.618 c 0,-4.723 -3.979,-8.58 -8.85,-8.58 -4.865,0 -8.822,3.857 -8.822,8.58 l 0,109.861 c -1.516,2.289 -3.953,3.959 -6.893,4.002 -4.723,0.096 -8.678,-3.613 -8.773,-8.39 l -2.674,-62.765 0,-42.71 c 0,-4.723 -3.979,-8.58 -8.846,-8.58 -4.891,0 -8.87,3.857 -8.87,8.58 l 0,13.347 -11.955,97.793 c -0.438,18.304 14.391,33.724 37.501,38.205 -4.863,126.064 -21.472,236.138 -43.624,303.699 -0.94,2.022 -1.592,4.052 -2.072,6.167 0,0.032 -0.049,0.083 -0.049,0.146 -0.34,1.547 -0.553,3.187 -0.578,4.82 -0.482,20.293 22.803,36.777 52.012,36.757 29.213,0 53.319,-16.506 53.8,-36.853 0,-1.61 -0.146,-3.229 -0.41,-4.789 0,-0.051 -0.022,-0.084 -0.022,-0.178 -0.361,-2.072 -0.963,-4.146 -1.787,-6.123 C 85.025,393.03 73.67,282.985 74.783,156.877 c 23.333,-4.481 40.804,-19.856 41.216,-38.18 z"
               id="path3395" />
          </g>
        </g>
        <g
           id="Layer_1_1_" />
      </g>
      <g
         transform="matrix(4,0,0,4,-817.80817,-331.0562)"
         id="g3469">
        <path
           style="fill:none;stroke:#000000;stroke-width:2;stroke-miterlimit:10"
           inkscape:connector-curvature="0"
           d="m 21,11 0,8 c 0,1.1 -0.9,2 -2,2 L 5,21 C 3.9,21 3,20.1 3,19 L 3,5 C 3,3.9 3.9,3 5,3 l 9,0"
           stroke-miterlimit="10"
           id="path3460" />
        <polyline
           style="clip-rule:evenodd;fill:none;fill-rule:evenodd;stroke:#000000;stroke-width:2;stroke-miterlimit:10"
           id="Done__x2014__Displayed_on_the_left_side_of_a_contextual_action_bar__x28_CAB_x29__to_allow_the_user_to_dismiss_it._3_"
           points="  21.2,4.6 11.2,15.2 6.8,10.8 "
           stroke-miterlimit="10" />
      </g>
      <path
         style="fill:#000000;stroke:#000000;stroke-width:0.3352845"
         inkscape:connector-curvature="0"
         d="m -144.62497,-337.17428 -151.3177,0 -1.31231,0 -3.18479,0 -2.19378,0 0,108.23615 164.70972,0 0,-108.23615 -5.69723,0 -1.00391,0 z m -6.58829,6.76491 -63.63226,65.33442 c -2.90155,2.97919 -7.96545,2.97919 -10.867,0 l -63.64186,-65.33442 138.14112,0 z m -144.83233,2.69482 42.77944,43.91754 -42.77944,43.92433 0,-87.84187 z m 5.25648,92.01048 42.18448,-43.30668 18.23388,18.71867 c 2.69276,2.76819 6.27958,4.29431 10.09173,4.29431 3.81216,0 7.39897,-1.52612 10.09173,-4.29431 l 18.23388,-18.72174 42.18116,43.30975 -141.01686,0 z m 146.27698,-4.16522 -42.77974,-43.92738 42.77941,-43.9274 0,87.85478 z"
         id="path3571" />
      <path
         style="fill:none;stroke:#000000;stroke-width:5.41703701;stroke-miterlimit:4;stroke-dasharray:none;stroke-opacity:1"
         inkscape:connector-curvature="0"
         d="m -1076.4129,-273.95904 31.8401,0 0,13.64574 c 0,2.20151 1.7057,4.54858 4.5485,4.54858 2.0969,0 3.1613,-1.30545 4.5486,-2.45623 l 24.4486,-20.28667 c 1.7421,-1.42371 2.8429,-2.52446 2.8429,-4.54858 0,-2.02412 -1.1008,-3.12943 -2.8429,-4.54858 l -24.4486,-20.28667 c -1.3873,-1.15079 -2.4517,-2.45624 -4.5486,-2.45624 -2.8428,0 -4.5485,2.34707 -4.5485,4.54859 l 0,13.64574 -31.8401,0 c -2.5017,0 -4.5486,2.04686 -4.5486,4.54858 l 0,9.09716 c 0,2.50172 2.0469,4.54858 4.5486,4.54858 z"
         id="path3654" />
      <path
         id="path4497"
         d="m -526.88343,-273.95904 31.84004,0 0,13.64574 c 0,2.20151 1.70571,4.54858 4.54858,4.54858 2.09689,0 3.16127,-1.30545 4.54857,-2.45623 l 24.44861,-20.28667 c 1.74212,-1.42371 2.84286,-2.52446 2.84286,-4.54858 0,-2.02412 -1.10074,-3.12943 -2.84286,-4.54858 l -24.44861,-20.28667 c -1.3873,-1.15079 -2.45168,-2.45624 -4.54857,-2.45624 -2.84287,0 -4.54858,2.34707 -4.54858,4.54859 l 0,13.64574 -31.84004,0 c -2.50174,0 -4.54862,2.04686 -4.54862,4.54858 l 0,9.09716 c 0,2.50172 2.04688,4.54858 4.54862,4.54858 z"
         inkscape:connector-curvature="0"
         style="fill:none;stroke:#000000;stroke-width:5.41703701;stroke-miterlimit:4;stroke-dasharray:none;stroke-opacity:1" />
      <path
         inkscape:connector-curvature="0"
         d="m 381.72823,-223.0487 -74.985,0 0,-15.0075 74.985,0 0,15.0075 z m 0,-105.0075 -74.985,0 0,15.0075 74.985,0 0,-15.0075 z m 0,29.985 -74.985,0 0,15.015 74.985,0 0,-15.015 z m -90,-29.985 -14.955,0 0,15.0075 14.955,0 0,-15.0075 z m 90,60.0075 -74.985,0 0,14.9775 74.985,0 0,-14.9775 z m -90,29.9925 -14.955,0 0,15.0075 14.955,0 0,-15.0075 z m 0,-60.015 -14.955,0 0,15.015 14.955,0 0,-15.015 z m 0,30.0225 -14.955,0 0,14.9775 14.955,0 0,-14.9775 z m 120.045,-97.5225 c 0,-4.1325 -3.3975,-7.485 -7.545,-7.485 l -149.955,0 c -4.1775,0 -7.545,3.3525 -7.545,7.485 l 0,165.0225 c 0,4.125 3.3675,7.4925 7.545,7.4925 l 149.955,0 c 4.1475,0 7.545,-3.3675 7.545,-7.4925 l 0,-165.0225 z m -15.03,157.5 -135,0 0,-135 135,0 0,135 z"
         id="path4547" />
      <path
         style="fill:none;stroke:#000000;stroke-width:5.41703701;stroke-miterlimit:4;stroke-dasharray:none;stroke-opacity:1"
         inkscape:connector-curvature="0"
         d="m 22.646004,-273.95904 31.84004,0 0,13.64574 c 0,2.20151 1.70571,4.54858 4.54858,4.54858 2.09689,0 3.16127,-1.30545 4.54857,-2.45623 l 24.44861,-20.28667 c 1.74212,-1.42371 2.84286,-2.52446 2.84286,-4.54858 0,-2.02412 -1.10074,-3.12943 -2.84286,-4.54858 l -24.44861,-20.28667 c -1.3873,-1.15079 -2.45168,-2.45624 -4.54857,-2.45624 -2.84287,0 -4.54858,2.34707 -4.54858,4.54859 l 0,13.64574 -31.84004,0 c -2.50174,0 -4.54862,2.04686 -4.54862,4.54858 l 0,9.09716 c 0,2.50172 2.04688,4.54858 4.54862,4.54858 z"
         id="path4556" />
      <text
         sodipodi:linespacing="125%"
         id="text4562"
         y="-106.13486"
         x="-1569.7771"
         style="font-style:normal;font-variant:normal;font-weight:bold;font-stretch:normal;font-size:40px;line-height:125%;font-family:sans-serif;-inkscape-font-specification:'sans-serif Bold';letter-spacing:0px;word-spacing:0px;fill:#000000;fill-opacity:1;stroke:none;stroke-width:1px;stroke-linecap:butt;stroke-linejoin:miter;stroke-opacity:1"
         xml:space="preserve"><tspan
           y="-106.13486"
           x="-1569.7771"
           id="tspan4564"
           sodipodi:role="line">NAJDĚTE RESTAURACE</tspan></text>
      <text
         sodipodi:linespacing="125%"
         id="text4566"
         y="-108.10634"
         x="-975.07184"
         style="font-style:normal;font-variant:normal;font-weight:bold;font-stretch:normal;font-size:40px;line-height:125%;font-family:sans-serif;-inkscape-font-specification:'sans-serif Bold';letter-spacing:0px;word-spacing:0px;fill:#000000;fill-opacity:1;stroke:none;stroke-width:1px;stroke-linecap:butt;stroke-linejoin:miter;stroke-opacity:1"
         xml:space="preserve"><tspan
           y="-108.10634"
           x="-975.07184"
           id="tspan4568"
           sodipodi:role="line">VYBERTE OBLÍBENÉ</tspan></text>
      <text
         sodipodi:linespacing="125%"
         id="text4570"
         y="-108.90712"
         x="-400.17126"
         style="font-style:normal;font-variant:normal;font-weight:bold;font-stretch:normal;font-size:40px;line-height:125%;font-family:sans-serif;-inkscape-font-specification:'sans-serif Bold';letter-spacing:0px;word-spacing:0px;fill:#000000;fill-opacity:1;stroke:none;stroke-width:1px;stroke-linecap:butt;stroke-linejoin:miter;stroke-opacity:1"
         xml:space="preserve"><tspan
           y="-108.90712"
           x="-400.17126"
           id="tspan4572"
           sodipodi:role="line">ZADEJTE E-MAIL</tspan></text>
      <text
         sodipodi:linespacing="125%"
         id="text4574"
         y="-108.10634"
         x="78.791748"
         style="font-style:normal;font-variant:normal;font-weight:bold;font-stretch:normal;font-size:40px;line-height:125%;font-family:sans-serif;-inkscape-font-specification:'sans-serif Bold';letter-spacing:0px;word-spacing:0px;fill:#000000;fill-opacity:1;stroke:none;stroke-width:1px;stroke-linecap:butt;stroke-linejoin:miter;stroke-opacity:1"
         xml:space="preserve"><tspan
           y="-108.10634"
           x="78.791748"
           id="tspan4576"
           sodipodi:role="line">DOSTÁVEJTE JÍDELÁKY</tspan></text>
    </g>
  </g>
</svg>
